<svg width="96" height="96" viewBox="0 0 97 96" fill="none" xmlns="http://www.w3.org/2000/svg">
<g clip-path="url(#clip0)">
<path d="M48.1085 95.0443C74.0938 95.0443 95.159 73.9823 95.159 48.0009C95.159 22.0195 74.0938 0.957451 48.1085 0.957451C22.1232 0.957451 1.05792 22.0195 1.05792 48.0009C1.05792 73.9823 22.1232 95.0443 48.1085 95.0443Z" fill="white" stroke="#004169" stroke-width="2"/>
<path d="M49.2227 95.0333C66.8504 92.4116 79.3238 86.9355 79.6353 82.2286C79.6801 80.6755 79.4921 79.1246 79.0777 77.628C78.2731 75.2525 76.973 73.0781 75.2648 71.2509C69.6786 65.2889 58.3807 64.7322 57.6221 64.7018L49.2227 95.0333Z" fill="#62FCB7"/>
<path d="M47.5047 95.0333C29.8771 92.4116 17.4036 86.9355 17.0922 82.2286C17.0474 80.6755 17.2354 79.1246 17.6498 77.628C18.4551 75.2517 19.757 73.0771 21.4677 71.2509C27.0488 65.2889 38.3317 64.7322 39.1104 64.7018L47.5047 95.0333Z" fill="#62FCB7"/>
<path d="M41.8934 15.811C44.4504 13.8625 45.8118 13.5436 48.0171 12.6833C53.96 10.3602 63.4444 12.9717 68.2218 17.628C74.5515 23.7874 75.7923 35.6204 73.3107 43.4753C70.0152 53.9013 59.516 55.8499 58.0893 56.442L57.587 54.0531C57.587 54.0531 65.6749 47.089 63.5499 41.4003C63.5499 41.4003 67.5386 42.8224 67.5386 36.6529C67.5386 33.8794 67.5386 33.5858 63.0877 31.3184C54.0956 26.728 49.273 19.9663 46.7662 17.6533C44.2595 15.3404 41.8934 15.811 41.8934 15.811Z" fill="#C7FFE5"/>
<path d="M48.1085 95.0443C74.0938 95.0443 95.159 73.9823 95.159 48.0009C95.159 22.0195 74.0938 0.957451 48.1085 0.957451C22.1232 0.957451 1.05792 22.0195 1.05792 48.0009C1.05792 73.9823 22.1232 95.0443 48.1085 95.0443Z" stroke="#004169" stroke-width="2"/>
<path d="M39.3214 33.9351C39.3214 33.9351 39.879 31.9106 42.4962 31.9106C43.1613 31.911 43.8126 32.1015 44.3746 32.4598C44.9365 32.8181 45.3861 33.3297 45.6711 33.9351" stroke="#004169" stroke-miterlimit="10" stroke-linecap="round"/>
<path d="M50.78 33.9351C50.78 33.9351 51.3326 31.9106 53.9549 31.9106C54.62 31.911 55.2713 32.1015 55.8332 32.4598C56.3952 32.8181 56.8448 33.3297 57.1298 33.9351" stroke="#004169" stroke-miterlimit="10" stroke-linecap="round"/>
<path d="M44.1892 45.9755C44.1892 45.9755 44.9427 48.7035 48.5094 48.7035C49.4161 48.7117 50.3064 48.4594 51.076 47.9763C51.8455 47.4932 52.4625 46.7992 52.8548 45.9755" stroke="#004169" stroke-miterlimit="10" stroke-linecap="round"/>
<path d="M35.0865 34.4412C33.3634 33.6567 32.2934 34.1628 32.0372 35.9595C31.6755 38.4901 32.1477 41.2434 35.2523 41.9013" stroke="#004169" stroke-miterlimit="10" stroke-linecap="round"/>
<path d="M61.7365 34.4412C63.4646 33.6567 64.5296 34.1628 64.7858 35.9595C65.1475 38.4901 64.6803 41.2434 61.5757 41.9013" stroke="#004169" stroke-miterlimit="10" stroke-linecap="round"/>
<path d="M37.5832 36.4403C37.3622 39.396 39.7283 41.6331 42.4963 41.8709C47.4495 42.3062 48.9164 36.3796 47.2837 36.2278C44.0491 36.0843 40.8086 36.1553 37.5832 36.4403V36.4403Z" fill="#C3FBE2"/>
<path d="M50.2124 36.4403C49.9964 39.396 52.3575 41.6331 55.1255 41.8709C60.0787 42.3062 61.5456 36.3796 59.9129 36.2278C56.6783 36.0843 53.4378 36.1553 50.2124 36.4403V36.4403Z" fill="#C3FBE2"/>
<path d="M42.657 36.5314H42.652C42.0804 36.5314 41.6171 36.9982 41.6171 37.574V37.5791C41.6171 38.1549 42.0804 38.6217 42.652 38.6217H42.657C43.2285 38.6217 43.6919 38.1549 43.6919 37.5791V37.574C43.6919 36.9982 43.2285 36.5314 42.657 36.5314Z" fill="#004169"/>
<path d="M53.96 36.5314H53.955C53.3834 36.5314 52.9201 36.9982 52.9201 37.574V37.5791C52.9201 38.1549 53.3834 38.6217 53.955 38.6217H53.96C54.5315 38.6217 54.9948 38.1549 54.9948 37.5791V37.574C54.9948 36.9982 54.5315 36.5314 53.96 36.5314Z" fill="#004169"/>
<path d="M37.1713 35.4281C37.116 35.5698 36.6087 38.7988 38.7788 40.0337C40.3713 40.9397 43.3653 41.3699 45.6862 39.9173C47.344 38.9051 46.9421 35.8684 46.8065 35.504" stroke="#004169" stroke-linecap="round" stroke-linejoin="round"/>
<path d="M59.712 35.4281C59.7672 35.5698 60.2696 38.7988 58.1045 40.0337C56.507 40.9397 53.5129 41.3699 51.1971 39.9173C49.5393 38.9051 49.9412 35.8684 50.0718 35.504" stroke="#004169" stroke-linecap="round" stroke-linejoin="round"/>
<path d="M37.0809 35.4028H59.6818" stroke="#004169" stroke-linecap="round" stroke-linejoin="round"/>
<path d="M37.0809 35.4028L35.2975 34.6031" stroke="#004169" stroke-linecap="round" stroke-linejoin="round"/>
<path d="M59.712 35.4028L61.42 34.5475" stroke="#004169" stroke-linecap="round" stroke-linejoin="round"/>
<path d="M41.371 63.806L46.1434 67.4399L40.8033 71.9038L39.5073 65.2737L41.371 63.806Z" stroke="#004169" stroke-linecap="round" stroke-linejoin="round"/>
<path d="M55.241 63.806L49.8909 67.1717L55.8086 71.9038L57.0997 65.2737L55.241 63.806Z" stroke="#004169" stroke-linecap="round" stroke-linejoin="round"/>
<path d="M50.4636 67.3083L48.414 76.7474L45.3546 68.1029L40.8033 71.9038L47.6052 95.0434H48.9816L55.7032 71.9038L50.4636 67.3083Z" stroke="#004169" stroke-linecap="round" stroke-linejoin="round"/>
<path d="M38.0454 65.5268L33.5945 71.0738L37.6435 73.5588L34.4837 75.2189L47.6052 95.0434L38.9296 65.8001L38.0454 65.5268Z" stroke="#004169" stroke-linecap="round" stroke-linejoin="round"/>
<path d="M58.7775 64.7676L63.2334 70.3197L59.1844 72.8047L62.3443 74.4597L49.2227 94.2893L57.0997 65.2737L58.7775 64.7676Z" stroke="#004169" stroke-linecap="round" stroke-linejoin="round"/>
<path d="M35.2975 35.3117V42.2708C35.7346 50.2725 40.1653 56.442 47.6655 56.6343C55.7785 56.8722 61.43 50.9709 61.42 42.2708V35.3117" stroke="#004169" stroke-miterlimit="10" stroke-linecap="round"/>
<path d="M55.5876 64.2109C56.2357 62.4091 56.09 62.7735 56.09 60.3442V54.5593" stroke="#004169" stroke-miterlimit="10" stroke-linecap="round"/>
<path d="M40.3964 54.5593V60.3442C40.4818 62.5002 40.3462 62.4648 40.9591 64.1805" stroke="#004169" stroke-miterlimit="10" stroke-linecap="round"/>
<path d="M56.0749 64.3324C56.0749 64.3324 72.9339 68.2244 75.2649 71.251C77.5958 74.2775 78.9773 82.4513 78.9773 82.4513" stroke="#004169" stroke-miterlimit="10" stroke-linecap="round"/>
<path d="M40.2959 64.3324C40.2959 64.3324 23.9443 68.2244 21.6133 71.251C19.2824 74.2775 17.8859 82.4513 17.8859 82.4513" stroke="#004169" stroke-miterlimit="10" stroke-linecap="round"/>
<path d="M46.5603 42.7364C46.6938 43.0989 46.9426 43.4067 47.268 43.6117C47.5933 43.8168 47.9768 43.9077 48.3588 43.8701C48.7344 43.8726 49.103 43.7673 49.4215 43.5665C49.7399 43.3658 49.9951 43.0778 50.1572 42.7364" stroke="#004169" stroke-miterlimit="10" stroke-linecap="round"/>
<path d="M39.0853 56.437C32.5346 54.4429 24.7229 46.7145 24.9842 33.4795C25.0294 31.3235 25.8432 24.8756 29.7666 20.7963C31.9468 18.5137 35.1016 15.9376 40.3864 16.3172C42.9433 14.3686 44.3047 14.0498 46.5101 13.1894C52.4529 10.8663 60.4906 14.1105 65.268 18.7566C71.5977 24.9211 73.165 34.4918 70.6834 42.3518C67.3879 52.7727 58.009 56.3459 56.5823 56.938" stroke="#004169" stroke-miterlimit="10" stroke-linecap="round"/>
<path d="M45.2541 18.1341C50.4334 28.7626 59.732 33.601 66.0265 31.3235" stroke="#004169" stroke-miterlimit="10" stroke-linecap="round"/>
<path d="M31.5298 30.5643C37.7942 30.1949 41.1449 29.4104 45.2541 25.8575C45.8268 25.3513 47.992 23.2054 46.6808 21.1354" stroke="#004169" stroke-miterlimit="10" stroke-linecap="round"/>
</g>
<defs>
<clipPath id="clip0">
<rect width="96" height="96" fill="white" transform="translate(0.107574)"/>
</clipPath>
</defs>
</svg>
