<svg width="96" height="96" viewBox="0 0 97 96" fill="none" xmlns="http://www.w3.org/2000/svg">
<g clip-path="url(#clip0)">
<path d="M48.2827 95.0443C74.268 95.0443 95.3332 73.9823 95.3332 48.0009C95.3332 22.0195 74.268 0.957451 48.2827 0.957451C22.2974 0.957451 1.23212 22.0195 1.23212 48.0009C1.23212 73.9823 22.2974 95.0443 48.2827 95.0443Z" fill="white" stroke="#004169" stroke-width="2"/>
<path d="M59.4391 64.8435L59.0975 75.9781L36.6472 75.7301L36.0695 65.2535L37.657 64.7474C37.657 64.7474 37.9785 70.8207 48.0708 70.8207C58.1631 70.8207 59.4391 64.8435 59.4391 64.8435Z" fill="#62FCB7"/>
<path d="M58.7709 65.7444C57.937 68.0675 55.0937 70.9523 48.2817 70.9523C39.9878 70.9523 38.7822 68.0675 37.9533 65.1877" stroke="#004169" stroke-width="1.15394" stroke-linecap="round" stroke-linejoin="round"/>
<path d="M44.1624 14.8444C46.4029 11.003 53.2048 12.1468 57.088 13.326C63.4579 15.2442 66.04 21.6769 66.904 26.7432C67.331 29.2737 67.0196 34.1679 66.0551 33.4846C58.7759 28.3121 50.3163 33.8085 45.5992 25.2602C45.0617 24.2936 42.1128 18.3568 44.1624 14.8444Z" fill="#C7FFE5"/>
<path d="M29.8453 66.3922C29.8453 66.3922 21.1093 67.8701 19.1351 69.4289C17.1608 70.9878 15.8949 81.9654 15.8949 81.9654C15.8949 81.9654 19.7178 85.6651 21.3605 86.8545C23.0032 88.0439 27.7856 90.7668 27.7856 90.7668L28.8456 75.7098L30.1166 75.6693L29.8453 66.3922Z" fill="#62FCB7"/>
<path d="M28.2378 90.2354L29.2425 75.9629H30.6341L30.2774 66.4024L36.0695 65.2383L36.4764 75.9629H59.2683L59.856 64.8435L65.6281 65.8305L65.1107 75.9629H66.1455L67.6526 91.2527L58.7709 93.9907V82.5424L37.4209 82.5525L37.0943 93.4239L28.2378 90.2354Z" fill="#C7FFE5"/>
<path d="M65.8994 65.38C65.8994 65.38 75.1377 67.364 77.117 68.9228C79.0963 70.4817 80.8545 81.4593 80.8545 81.4593C80.8545 81.4593 76.5342 85.159 74.8865 86.3484C73.2388 87.5378 67.9641 90.2607 67.9641 90.2607L66.3967 75.2037L65.6281 75.1632L65.8994 65.38Z" fill="#62FCB7"/>
<path d="M37.4208 93.4239L37.6519 82.5525H58.7157V94.1932C55.0783 94.8664 51.3917 95.2338 47.694 95.2914C44.1926 95.2256 40.7243 94.5951 37.4208 93.4239V93.4239Z" fill="#62FCB7"/>
<path d="M48.2827 95.0443C74.268 95.0443 95.3332 73.9823 95.3332 48.0009C95.3332 22.0195 74.268 0.957451 48.2827 0.957451C22.2974 0.957451 1.23212 22.0195 1.23212 48.0009C1.23212 73.9823 22.2974 95.0443 48.2827 95.0443Z" stroke="#004169" stroke-width="2"/>
<path d="M39.9678 36.4656C39.9678 36.4656 40.5204 34.4412 43.1376 34.4412C43.8027 34.4416 44.454 34.632 45.016 34.9904C45.5779 35.3487 46.0275 35.8602 46.3125 36.4656" stroke="#004169" stroke-miterlimit="10" stroke-linecap="round"/>
<path d="M50.4369 36.4656C50.4369 36.4656 50.9945 34.4412 53.6117 34.4412C54.2768 34.4416 54.9281 34.632 55.4901 34.9904C56.052 35.3487 56.5016 35.8602 56.7866 36.4656" stroke="#004169" stroke-miterlimit="10" stroke-linecap="round"/>
<path d="M44.3483 45.9755C44.3483 45.9755 45.1019 48.7035 48.6686 48.7035C49.5719 48.7078 50.4578 48.4538 51.2235 47.9709C51.9892 47.488 52.6031 46.796 52.9938 45.9755" stroke="#004169" stroke-miterlimit="10" stroke-linecap="round"/>
<path d="M46.8702 42.8478C47.0044 43.2097 47.2534 43.517 47.5785 43.722C47.9036 43.9269 48.2868 44.0181 48.6686 43.9814C49.0444 43.9813 49.4125 43.8749 49.7313 43.6745C50.0501 43.4741 50.3067 43.1877 50.4721 42.8478" stroke="#004169" stroke-miterlimit="10" stroke-linecap="round"/>
<path d="M43.3184 37.5437H43.3134C42.7419 37.5437 42.2786 38.0104 42.2786 38.5863V38.5913C42.2786 39.1671 42.7419 39.6339 43.3134 39.6339H43.3184C43.89 39.6339 44.3533 39.1671 44.3533 38.5913V38.5863C44.3533 38.0104 43.89 37.5437 43.3184 37.5437Z" fill="#004169"/>
<path d="M53.6168 37.5437H53.6118C53.0403 37.5437 52.5769 38.0104 52.5769 38.5863V38.5913C52.5769 39.1671 53.0403 39.6339 53.6118 39.6339H53.6168C54.1883 39.6339 54.6517 39.1671 54.6517 38.5913V38.5863C54.6517 38.0104 54.1883 37.5437 53.6168 37.5437Z" fill="#004169"/>
<path d="M35.2456 35.9595C33.5226 35.175 32.4525 35.6811 32.1963 37.4779C31.8346 40.0084 32.3069 42.7617 35.4114 43.4197" stroke="#004169" stroke-miterlimit="10" stroke-linecap="round"/>
<path d="M61.8955 35.9595C63.6236 35.175 64.6936 35.6811 64.9448 37.4779C65.3065 40.0084 64.8393 42.7617 61.7348 43.4197" stroke="#004169" stroke-miterlimit="10" stroke-linecap="round"/>
<path d="M35.4465 34.2995V42.2708C35.8836 50.2725 40.3144 56.442 47.8145 56.6343C55.9275 56.8722 61.579 50.9709 61.569 42.2708V32.7811" stroke="#004169" stroke-miterlimit="10" stroke-linecap="round"/>
<path d="M56.234 64.0591C56.234 62.6723 56.234 61.5285 56.234 59.8381V54.0532" stroke="#004169" stroke-miterlimit="10" stroke-linecap="round"/>
<path d="M40.5555 54.0532V59.8381C40.6213 61.488 40.6315 63.0367 40.6315 64.3324" stroke="#004169" stroke-miterlimit="10" stroke-linecap="round"/>
<path d="M56.234 64.3324C56.234 64.3324 75.1024 66.706 77.4333 69.7326C79.7643 72.7592 80.6585 81.9452 80.6585 81.9452" stroke="#004169" stroke-miterlimit="10" stroke-linecap="round"/>
<path d="M40.4701 64.3324C40.4701 64.3324 21.6017 66.706 19.2707 69.7326C16.9398 72.7592 16.0456 82.4513 16.0456 82.4513" stroke="#004169" stroke-miterlimit="10" stroke-linecap="round"/>
<path d="M31.7392 34.6892C32.5379 32.9431 33.844 32.4825 33.4673 29.299C33.2261 27.2746 32.6334 26.5103 32.5731 24.9211C32.4726 22.183 33.8089 18.5036 37.034 16.6107C39.6362 15.0924 41.4949 14.9658 42.4544 15.1379" stroke="#004169" stroke-miterlimit="10" stroke-linecap="round"/>
<path d="M42.4796 21.8288C42.4796 24.3594 37.6871 35.2003 32.5782 34.8359C32.3023 34.8182 32.0292 34.7689 31.7643 34.6892" stroke="#004169" stroke-miterlimit="10" stroke-linecap="round"/>
<path d="M42.158 18.7263C38.2999 20.189 36.5869 24.7997 36.4161 26.8646" stroke="#004169" stroke-miterlimit="10" stroke-linecap="round"/>
<path d="M64.3872 34.4159C66.5423 33.348 66.6227 21.2569 57.8566 15.1531C57.0026 14.5609 51.2004 12.1164 45.9658 13.4222C42.1078 14.3889 42.1982 18.4226 42.1781 18.7516C41.726 25.1995 48.3621 31.779 54.104 32.2294C56.1888 32.3914 57.7109 31.7233 60.6798 32.5635C64.1159 33.5504 63.5282 34.8359 64.3872 34.4159Z" stroke="#004169" stroke-miterlimit="10" stroke-linecap="round"/>
<path d="M65.2613 32.4774C65.2659 30.5225 64.6045 28.6252 63.3875 27.1025C61.9709 25.4222 61.6846 25.5842 58.9216 24.2885C56.7943 23.2637 54.8746 21.8495 53.2601 20.1181" stroke="#004169" stroke-miterlimit="10" stroke-linecap="round"/>
<path d="M30.2773 66.4024L36.0695 65.2383L36.6472 80.5179L33.7235 82.5525L30.7947 80.4015L30.2773 66.4024Z" stroke="#004169" stroke-miterlimit="10" stroke-linecap="round"/>
<path d="M65.4673 66.4024L59.6752 65.2383L59.0975 80.5179L62.0212 82.5525L64.9449 80.4015L65.4673 66.4024Z" stroke="#004169" stroke-miterlimit="10" stroke-linecap="round"/>
<path d="M28.2378 90.2353L29.2425 75.9629H66.1455L67.6526 90.701C61.4609 93.5326 54.7496 95.0273 47.9502 95.089C41.0989 94.9997 34.3577 93.3398 28.2378 90.2353V90.2353Z" stroke="#004169" stroke-miterlimit="10" stroke-linecap="round"/>
<path d="M37.4208 93.4239L37.6519 82.5525H58.7207V93.4239" stroke="#004169" stroke-miterlimit="10" stroke-linecap="round"/>
<path d="M33.4522 79.9663C34.0016 79.9663 34.4469 79.5176 34.4469 78.9642C34.4469 78.4107 34.0016 77.962 33.4522 77.962C32.9029 77.962 32.4576 78.4107 32.4576 78.9642C32.4576 79.5176 32.9029 79.9663 33.4522 79.9663Z" stroke="#004169" stroke-miterlimit="10" stroke-linecap="round"/>
<path d="M62.2372 79.9663C62.7865 79.9663 63.2318 79.5176 63.2318 78.9642C63.2318 78.4107 62.7865 77.962 62.2372 77.962C61.6878 77.962 61.2425 78.4107 61.2425 78.9642C61.2425 79.5176 61.6878 79.9663 62.2372 79.9663Z" stroke="#004169" stroke-miterlimit="10" stroke-linecap="round"/>
<path d="M45.996 89.7141C46.3288 89.7141 46.6542 89.6146 46.9309 89.4283C47.2077 89.242 47.4234 88.9772 47.5508 88.6674C47.6781 88.3576 47.7115 88.0167 47.6465 87.6878C47.5816 87.3589 47.4213 87.0568 47.1859 86.8197C46.9506 86.5826 46.6507 86.4211 46.3243 86.3557C45.9978 86.2902 45.6595 86.3238 45.352 86.4521C45.0444 86.5805 44.7816 86.7978 44.5967 87.0766C44.4118 87.3554 44.3131 87.6832 44.3131 88.0186C44.3131 88.4682 44.4904 88.8995 44.806 89.2175C45.1216 89.5354 45.5496 89.7141 45.996 89.7141" fill="white"/>
<path d="M46.0664 86.3281C45.625 86.3235 45.1988 86.4901 44.8761 86.7936C44.5535 87.097 44.3591 87.5139 44.3333 87.9578C44.3245 88.1838 44.361 88.4092 44.4405 88.6207C44.52 88.8321 44.6409 89.0253 44.7961 89.1887C44.9512 89.3521 45.1374 89.4824 45.3436 89.5717C45.5497 89.6611 45.7716 89.7078 45.9961 89.709H51.0196C51.2453 89.7098 51.4689 89.6647 51.6768 89.5762C51.8847 89.4877 52.0727 89.3578 52.2295 89.1942C52.3862 89.0305 52.5085 88.8367 52.5889 88.6242C52.6694 88.4117 52.7063 88.185 52.6975 87.9578C52.6717 87.513 52.4766 87.0954 52.1528 86.7918C51.829 86.4882 51.4016 86.3222 50.9593 86.3281H46.0664ZM51.0246 91.0553H45.9961C45.5908 91.0555 45.1896 90.9735 44.8165 90.8139C44.4434 90.6544 44.1061 90.4207 43.8247 90.1268C43.5433 89.8329 43.3237 89.4849 43.1789 89.1035C43.0341 88.7222 42.9671 88.3153 42.9819 87.9072C43.0244 87.1172 43.3657 86.3737 43.9357 85.8295C44.5057 85.2854 45.261 84.982 46.0463 84.9819H50.9443C51.7324 84.9796 52.4911 85.2834 53.0627 85.83C53.6343 86.3767 53.9749 87.1243 54.0137 87.9173C54.0271 88.3246 53.9591 88.7303 53.8137 89.1105C53.6683 89.4907 53.4484 89.8376 53.1672 90.1303C52.8859 90.4231 52.5491 90.6559 52.1767 90.8148C51.8043 90.9737 51.4039 91.0555 50.9995 91.0553" fill="#1B4066"/>
</g>
<defs>
<clipPath id="clip0">
<rect width="96" height="96" fill="white" transform="translate(0.281708)"/>
</clipPath>
</defs>
</svg>
