<svg width="96" height="96" viewBox="0 0 97 96" fill="none" xmlns="http://www.w3.org/2000/svg">
<g clip-path="url(#clip0)">
<path d="M48.4568 95.0443C74.4421 95.0443 95.5073 73.9823 95.5073 48.0009C95.5073 22.0195 74.4421 0.957451 48.4568 0.957451C22.4715 0.957451 1.40625 22.0195 1.40625 48.0009C1.40625 73.9823 22.4715 95.0443 48.4568 95.0443Z" fill="white" stroke="#004169" stroke-width="2"/>
<path d="M15.5266 82.7499C15.5266 82.7499 16.9181 72.2581 19.244 69.2316C21.5699 66.205 39.9511 64.6259 39.9511 64.6259L45.1655 88.2969L47.175 76.3374L45.1655 71.0283L48.0742 78.7516L50.5859 70.9726L49.8274 70.6537L52.1432 88.2969L56.9056 64.3121C56.9056 64.3121 69.0525 64.631 78.2657 68.9785C81.7068 70.6082 82.5658 80.5635 82.5658 80.5635C82.5658 80.5635 65.948 94.8967 48.1445 94.8967C30.3411 94.8967 15.5266 82.7499 15.5266 82.7499Z" fill="#62FCB7"/>
<path d="M49.9731 36.8604C49.8224 38.8849 51.4801 42.1544 55.5392 42.1544C58.2418 42.1544 60.3919 38.9152 60.3417 36.8604H49.9731Z" fill="#C7FFE5"/>
<path d="M47.7727 36.8604C47.9234 38.8849 46.2657 42.1544 42.2066 42.1544C39.504 42.1544 37.3539 38.9152 37.4041 36.8604H47.7727Z" fill="#C7FFE5"/>
<path d="M37.7457 37.245C37.71 37.7879 37.7891 38.3322 37.9779 38.842C38.1667 39.3517 38.4608 39.8152 38.8407 40.2019C39.2207 40.5885 39.6778 40.8894 40.1819 41.0846C40.6859 41.2799 41.2254 41.365 41.7646 41.3345C44.4572 41.294 47.5115 39.1582 47.3608 37.1135" stroke="#004169" stroke-linecap="round" stroke-linejoin="round"/>
<path d="M59.2314 37.245C59.2767 39.3049 57.9103 41.38 55.2126 41.3345C52.515 41.2889 49.4657 39.1582 49.6113 37.1135" stroke="#004169" stroke-linecap="round" stroke-linejoin="round"/>
<path d="M36.3642 46.0008C36.9018 53.5521 43.0807 55.2779 43.3972 55.2121C43.7137 55.1464 42.7492 52.9194 44.0804 52.3121C44.7033 52.0236 52.736 51.4618 53.8462 52.5905C54.5193 53.2788 53.9718 55.1514 54.1174 55.1211C58.0057 54.8224 60.8741 48.7997 61.286 45.7275C61.3765 45.0595 62.9338 50.1156 59.1611 53.9317C58.0509 55.0553 54.7152 58.431 49.114 58.6031C42.1966 58.8106 37.9266 53.9165 37.4443 53.3446C34.7466 50.1459 36.3642 46.0008 36.3642 46.0008Z" fill="#004169"/>
<path d="M48.5263 68.1991L50.7718 71.2914L49.6465 73.1185L52.1683 88.2969L48.5263 95.5496L45.2308 87.4568L47.1749 72.9768L45.8286 70.8663L48.5263 68.1991Z" fill="#004169"/>
<path d="M48.4568 95.0443C74.4421 95.0443 95.5073 73.9823 95.5073 48.0009C95.5073 22.0195 74.4421 0.957451 48.4568 0.957451C22.4715 0.957451 1.40625 22.0195 1.40625 48.0009C1.40625 73.9823 22.4715 95.0443 48.4568 95.0443Z" stroke="#004169" stroke-width="2"/>
<path d="M56.5087 64.1603L61.6779 71.4281L57.5586 73.822L61.1153 76.1603L49.6114 95.0435L52.1684 88.2969L57.3125 67.4652L56.5087 64.1603Z" stroke="#004169" stroke-width="1.14888" stroke-linecap="round" stroke-linejoin="round"/>
<path d="M56.8101 65.0359C52.2889 67.6626 44.9897 67.5664 41.3024 65.0359" stroke="#004169" stroke-width="1.15394" stroke-linecap="round" stroke-linejoin="round"/>
<path d="M40.8001 64.1603L35.6309 71.4281L39.7502 73.822L36.1935 76.1603L47.6924 95.0435L45.1354 88.2969L39.9963 67.4652L40.8001 64.1603Z" stroke="#004169" stroke-width="1.14888" stroke-linecap="round" stroke-linejoin="round"/>
<path d="M59.0706 36.5213L61.929 34.9473" stroke="#004169" stroke-width="1.09827" stroke-linecap="round" stroke-linejoin="round"/>
<path d="M37.3137 36.5213L34.4553 34.9473" stroke="#004169" stroke-width="1.09827" stroke-linecap="round" stroke-linejoin="round"/>
<path d="M34.7969 36.7794C34.0082 36.8705 30.8132 28.1299 33.6264 21.4593C34.2041 20.0978 35.0832 18.0177 37.1428 16.7474C38.0973 16.1603 38.8207 16.0236 40.4835 14.7229C42.4025 13.2501 47.2402 12.6984 48.1545 12.6984C53.3438 12.6579 56.3629 13.4374 59.779 15.9629C60.2285 16.2876 60.6472 16.6536 61.0298 17.0561C62.6675 18.7971 63.421 21.105 63.7023 24.1417C64.2549 30.1038 62.6625 35.3927 62.1953 35.3319C61.7281 35.2712 63.0895 29.8659 60.1859 25.3159C59.6835 24.5517 58.513 22.7499 56.8452 22.7094C55.9812 22.7094 54.9061 23.1295 54.8358 23.7216C54.7655 24.3138 55.6898 24.8553 56.2524 25.0679C57.4832 25.5335 58.4477 24.7541 58.5934 24.9869C58.9099 25.493 56.0816 27.7756 53.7909 28.1856C53.387 28.2212 52.9803 28.2059 52.5802 28.14C53.2395 28.8691 53.9737 29.5256 54.7705 30.0987C52.4948 30.8579 48.697 32.1232 43.3067 30.1847C40.3931 28.2514 38.8207 24.5314 36.7108 25.0477C36.4938 25.102 36.288 25.1945 36.103 25.321C34.7416 26.2876 35.475 28.7625 35.3494 32.5787C35.3143 34.0464 35.2239 36.7288 34.7969 36.7794Z" fill="#004169"/>
<path d="M37.9065 34.9473C37.9065 34.9473 38.4742 32.9228 41.1617 32.9228C41.8385 32.917 42.5032 33.1039 43.0791 33.4621C43.6551 33.8203 44.1189 34.3351 44.417 34.9473" stroke="#004169" stroke-width="1.02741" stroke-miterlimit="10" stroke-linecap="round"/>
<path d="M52.746 34.9473C52.746 34.9473 53.3137 32.9228 55.9963 32.9228C56.6733 32.9158 57.3385 33.1022 57.9146 33.4605C58.4908 33.8189 58.9543 34.3344 59.2515 34.9473" stroke="#004169" stroke-width="1.02741" stroke-miterlimit="10" stroke-linecap="round"/>
<path d="M44.4421 46.9878C44.4421 46.9878 45.2158 49.7157 48.8729 49.7157C49.7914 49.7269 50.6943 49.4769 51.4781 48.9943C52.2618 48.5118 52.8946 47.8163 53.3037 46.9878" stroke="#004169" stroke-width="1.02741" stroke-miterlimit="10" stroke-linecap="round"/>
<path d="M47.0292 42.8478C47.0292 42.8478 47.3507 43.9814 48.8729 43.9814C49.2554 43.9889 49.6322 43.8862 49.9587 43.6854C50.2853 43.4846 50.5482 43.194 50.7165 42.8478" stroke="#004169" stroke-width="1.02741" stroke-miterlimit="10" stroke-linecap="round"/>
<path d="M35.1184 35.9595C33.3502 35.175 32.255 35.6811 31.9938 37.4779C31.602 39.9831 32.1043 42.7566 35.2792 43.4146" stroke="#004169" stroke-width="1.02741" stroke-miterlimit="10" stroke-linecap="round"/>
<path d="M62.4314 35.9595C64.2047 35.175 65.2948 35.6811 65.5611 37.4779C65.9278 40.0084 65.4455 42.7617 62.2656 43.4197" stroke="#004169" stroke-width="1.02741" stroke-miterlimit="10" stroke-linecap="round"/>
<path d="M35.3243 34.2995V42.2708C35.7714 50.2725 40.3177 56.442 48.0038 56.6343C56.3228 56.8722 62.1199 50.9709 62.1099 42.2708V33.7933" stroke="#004169" stroke-width="1.02741" stroke-miterlimit="10" stroke-linecap="round"/>
<path d="M56.2173 64.8283C56.6443 63.477 56.6443 62.5559 56.6443 59.8381V54.0532" stroke="#004169" stroke-width="1.02741" stroke-miterlimit="10" stroke-linecap="round"/>
<path d="M40.5539 54.0532V59.8381C40.6544 62.3383 40.6493 63.2037 41.0563 64.5753" stroke="#004169" stroke-width="1.02741" stroke-miterlimit="10" stroke-linecap="round"/>
<path d="M56.6293 64.3324C56.6293 64.3324 75.9197 68.2244 78.3059 71.2509C80.6921 74.2775 82.0082 79.9663 82.0082 79.9663" stroke="#004169" stroke-width="1.02741" stroke-miterlimit="10" stroke-linecap="round"/>
<path d="M40.4634 64.3324C40.4634 64.3324 21.173 68.2244 18.7818 71.251C16.3906 74.2775 14.6876 81.3125 14.6876 81.3125" stroke="#004169" stroke-width="1.02741" stroke-miterlimit="10" stroke-linecap="round"/>
<path d="M42.0208 37.5234H42.0157C41.4442 37.5234 40.9809 37.9902 40.9809 38.566V38.5711C40.9809 39.1469 41.4442 39.6137 42.0157 39.6137H42.0208C42.5923 39.6137 43.0556 39.1469 43.0556 38.5711V38.566C43.0556 37.9902 42.5923 37.5234 42.0208 37.5234Z" fill="#004169"/>
<path d="M54.8259 37.5234H54.8209C54.2493 37.5234 53.786 37.9902 53.786 38.566V38.5711C53.786 39.1469 54.2493 39.6137 54.8209 39.6137H54.8259C55.3974 39.6137 55.8607 39.1469 55.8607 38.5711V38.566C55.8607 37.9902 55.3974 37.5234 54.8259 37.5234Z" fill="#004169"/>
<path d="M37.7006 36.5213H59.0707" stroke="#004169" stroke-linecap="round" stroke-linejoin="round"/>
</g>
<defs>
<clipPath id="clip0">
<rect width="96" height="96" fill="white" transform="translate(0.455933)"/>
</clipPath>
</defs>
</svg>
