<svg width="96" height="96" viewBox="0 0 97 96" fill="none" xmlns="http://www.w3.org/2000/svg">
<g clip-path="url(#clip0)">
<path d="M48.6311 95.0443C74.6164 95.0443 95.6817 73.9823 95.6817 48.0009C95.6817 22.0195 74.6164 0.957451 48.6311 0.957451C22.6458 0.957451 1.58057 22.0195 1.58057 48.0009C1.58057 73.9823 22.6458 95.0443 48.6311 95.0443Z" fill="white" stroke="#004169" stroke-width="2"/>
<path d="M36.2319 44.7507C36.7092 44.6951 40.4718 53.9621 44.2696 54.286C45.1521 54.3666 46.041 54.3394 46.917 54.205C48.3789 53.9317 48.5547 53.4762 49.5644 53.4458C50.9409 53.4053 51.3478 54.2252 52.7443 54.372C54.3318 54.534 55.7585 53.6736 56.4567 53.2788C61.1387 50.5053 61.0332 44.5989 61.4803 44.6242C61.7365 44.6242 62.1434 45.4897 61.8772 48.167C61.6863 50.1156 59.1745 55.0654 55.2611 56.3914C53.461 56.9675 51.5884 57.2811 49.7001 57.3227C47.5506 57.2981 45.4119 57.0126 43.3302 56.4724C35.9808 54.3518 35.7597 44.8064 36.2319 44.7507Z" fill="#004169"/>
<path d="M59.7875 64.8435L59.4459 75.9781L36.9957 75.7301L36.418 65.2535L38.0054 64.7474C38.0054 64.7474 38.3269 70.8207 48.4192 70.8207C58.5115 70.8207 59.7875 64.8435 59.7875 64.8435Z" fill="#62FCB7"/>
<path d="M59.1193 65.7444C58.2854 68.0675 55.442 70.9523 48.6301 70.9523C40.3362 70.9523 39.1306 68.0675 38.3017 65.1877" stroke="#004169" stroke-width="1.15394" stroke-linecap="round" stroke-linejoin="round"/>
<path d="M30.1937 66.3922C30.1937 66.3922 21.4577 67.8701 19.4835 69.4289C17.5092 70.9878 16.2433 81.9654 16.2433 81.9654C16.2433 81.9654 20.0662 85.6651 21.7089 86.8545C23.3516 88.0439 28.134 90.7668 28.134 90.7668L29.194 75.7098L30.4649 75.6693L30.1937 66.3922Z" fill="#62FCB7"/>
<path d="M28.5862 90.2354L29.591 75.9629H30.9825L30.6258 66.4024L36.418 65.2383L36.8249 75.9629H59.6167L60.2044 64.8435L65.9765 65.8305L65.4591 75.9629H66.4939L68.001 91.2527L59.1194 93.9907V82.5424L37.7693 82.5525L37.4428 93.4239L28.5862 90.2354Z" fill="#C7FFE5"/>
<path d="M66.2477 65.38C66.2477 65.38 75.486 67.364 77.4653 68.9228C79.4446 70.4817 81.2028 81.4593 81.2028 81.4593C81.2028 81.4593 76.8826 85.159 75.2348 86.3484C73.5871 87.5378 68.3124 90.2607 68.3124 90.2607L66.745 75.2037L65.9764 75.1632L66.2477 65.38Z" fill="#62FCB7"/>
<path d="M37.7692 93.4239L38.0003 82.5525H59.064V94.1932C55.4267 94.8664 51.7401 95.2338 48.0424 95.2914C44.541 95.2256 41.0726 94.5951 37.7692 93.4239V93.4239Z" fill="#62FCB7"/>
<path d="M48.6311 95.0443C74.6164 95.0443 95.6817 73.9823 95.6817 48.0009C95.6817 22.0195 74.6164 0.957451 48.6311 0.957451C22.6458 0.957451 1.58057 22.0195 1.58057 48.0009C1.58057 73.9823 22.6458 95.0443 48.6311 95.0443Z" stroke="#004169" stroke-width="2"/>
<path d="M40.3162 36.4656C40.3162 36.4656 40.8688 34.4412 43.4861 34.4412C44.1511 34.4416 44.8024 34.632 45.3644 34.9904C45.9264 35.3487 46.3759 35.8602 46.661 36.4656" stroke="#004169" stroke-miterlimit="10" stroke-linecap="round"/>
<path d="M50.7852 36.4656C50.7852 36.4656 51.3428 34.4412 53.9601 34.4412C54.6252 34.4416 55.2765 34.632 55.8384 34.9904C56.4004 35.3487 56.85 35.8602 57.135 36.4656" stroke="#004169" stroke-miterlimit="10" stroke-linecap="round"/>
<path d="M44.6967 45.9755C44.6967 45.9755 45.4502 48.7035 49.0169 48.7035C49.9202 48.7078 50.8062 48.4538 51.5718 47.9709C52.3375 47.488 52.9514 46.796 53.3422 45.9755" stroke="#004169" stroke-miterlimit="10" stroke-linecap="round"/>
<path d="M47.2185 42.8478C47.3527 43.2097 47.6017 43.517 47.9268 43.722C48.252 43.9269 48.6351 44.0181 49.0169 43.9814C49.3927 43.9813 49.7609 43.8749 50.0796 43.6745C50.3984 43.4741 50.6551 43.1877 50.8204 42.8478" stroke="#004169" stroke-miterlimit="10" stroke-linecap="round"/>
<path d="M43.6668 37.5437H43.6618C43.0903 37.5437 42.627 38.0104 42.627 38.5863V38.5913C42.627 39.1671 43.0903 39.6339 43.6618 39.6339H43.6668C44.2384 39.6339 44.7017 39.1671 44.7017 38.5913V38.5863C44.7017 38.0104 44.2384 37.5437 43.6668 37.5437Z" fill="#004169"/>
<path d="M53.9651 37.5437H53.9601C53.3886 37.5437 52.9252 38.0104 52.9252 38.5863V38.5913C52.9252 39.1671 53.3886 39.6339 53.9601 39.6339H53.9651C54.5366 39.6339 55 39.1671 55 38.5913V38.5863C55 38.0104 54.5366 37.5437 53.9651 37.5437Z" fill="#004169"/>
<path d="M35.5941 35.9595C33.871 35.175 32.801 35.6811 32.5448 37.4779C32.1831 40.0084 32.6553 42.7617 35.7598 43.4197" stroke="#004169" stroke-miterlimit="10" stroke-linecap="round"/>
<path d="M62.2439 35.9595C63.972 35.175 65.0421 35.6811 65.2932 37.4779C65.6549 40.0084 65.1877 42.7617 62.0832 43.4197" stroke="#004169" stroke-miterlimit="10" stroke-linecap="round"/>
<path d="M35.795 34.2995V42.2708C36.232 50.2725 40.6628 56.442 48.163 56.6343C56.276 56.8722 61.9275 50.9709 61.9174 42.2708V32.7811" stroke="#004169" stroke-miterlimit="10" stroke-linecap="round"/>
<path d="M56.5824 64.0591C56.5824 62.6723 56.5824 61.5285 56.5824 59.8381V54.0532" stroke="#004169" stroke-miterlimit="10" stroke-linecap="round"/>
<path d="M40.9038 54.0532V59.8381C40.9696 61.488 40.9797 63.0367 40.9797 64.3324" stroke="#004169" stroke-miterlimit="10" stroke-linecap="round"/>
<path d="M56.5824 64.3324C56.5824 64.3324 75.4508 66.706 77.7818 69.7326C80.1127 72.7592 81.0069 81.9452 81.0069 81.9452" stroke="#004169" stroke-miterlimit="10" stroke-linecap="round"/>
<path d="M40.8185 64.3324C40.8185 64.3324 21.95 66.706 19.6191 69.7326C17.2882 72.7592 16.394 82.4513 16.394 82.4513" stroke="#004169" stroke-miterlimit="10" stroke-linecap="round"/>
<path d="M30.6257 66.4024L36.4178 65.2383L36.9955 80.5179L34.0718 82.5525L31.1431 80.4015L30.6257 66.4024Z" stroke="#004169" stroke-miterlimit="10" stroke-linecap="round"/>
<path d="M65.8157 66.4024L60.0235 65.2383L59.4458 80.5179L62.3695 82.5525L65.2932 80.4015L65.8157 66.4024Z" stroke="#004169" stroke-miterlimit="10" stroke-linecap="round"/>
<path d="M28.5862 90.2353L29.591 75.9629H66.4939L68.001 90.701C61.8094 93.5326 55.098 95.0273 48.2986 95.089C41.4473 94.9997 34.7061 93.3398 28.5862 90.2353V90.2353Z" stroke="#004169" stroke-miterlimit="10" stroke-linecap="round"/>
<path d="M37.7692 93.4239L38.0003 82.5525H59.0691V93.4239" stroke="#004169" stroke-miterlimit="10" stroke-linecap="round"/>
<path d="M33.8006 79.9663C34.35 79.9663 34.7953 79.5176 34.7953 78.9642C34.7953 78.4107 34.35 77.962 33.8006 77.962C33.2513 77.962 32.806 78.4107 32.806 78.9642C32.806 79.5176 33.2513 79.9663 33.8006 79.9663Z" stroke="#004169" stroke-miterlimit="10" stroke-linecap="round"/>
<path d="M62.5856 79.9663C63.1349 79.9663 63.5803 79.5176 63.5803 78.9642C63.5803 78.4107 63.1349 77.962 62.5856 77.962C62.0363 77.962 61.5909 78.4107 61.5909 78.9642C61.5909 79.5176 62.0363 79.9663 62.5856 79.9663Z" stroke="#004169" stroke-miterlimit="10" stroke-linecap="round"/>
<path d="M46.3443 89.7141C46.6772 89.7141 47.0025 89.6146 47.2793 89.4283C47.556 89.242 47.7717 88.9772 47.8991 88.6674C48.0265 88.3576 48.0598 88.0167 47.9949 87.6878C47.9299 87.3589 47.7697 87.0568 47.5343 86.8197C47.299 86.5826 46.9991 86.4211 46.6726 86.3557C46.3462 86.2902 46.0078 86.3238 45.7003 86.4521C45.3928 86.5805 45.13 86.7978 44.9451 87.0766C44.7601 87.3554 44.6614 87.6832 44.6614 88.0186C44.6614 88.4682 44.8387 88.8995 45.1543 89.2175C45.4699 89.5354 45.898 89.7141 46.3443 89.7141" fill="white"/>
<path d="M46.4148 86.3281C45.9734 86.3235 45.5472 86.4901 45.2245 86.7936C44.9018 87.097 44.7075 87.5139 44.6817 87.9578C44.6729 88.1838 44.7094 88.4092 44.7889 88.6207C44.8684 88.8321 44.9893 89.0253 45.1444 89.1887C45.2996 89.3521 45.4858 89.4824 45.692 89.5717C45.8981 89.6611 46.12 89.7078 46.3445 89.709H51.368C51.5937 89.7098 51.8173 89.6647 52.0252 89.5762C52.2331 89.4877 52.4211 89.3578 52.5779 89.1942C52.7346 89.0305 52.8569 88.8367 52.9373 88.6242C53.0178 88.4117 53.0547 88.185 53.0459 87.9578C53.02 87.513 52.825 87.0954 52.5012 86.7918C52.1774 86.4882 51.75 86.3222 51.3077 86.3281H46.4148ZM51.373 91.0553H46.3445C45.9392 91.0555 45.538 90.9735 45.1649 90.8139C44.7918 90.6544 44.4545 90.4207 44.1731 90.1268C43.8917 89.8329 43.6721 89.4849 43.5273 89.1035C43.3825 88.7222 43.3155 88.3153 43.3303 87.9072C43.3727 87.1172 43.7141 86.3737 44.2841 85.8295C44.8541 85.2854 45.6094 84.982 46.3947 84.9819H51.2927C52.0808 84.9796 52.8395 85.2834 53.4111 85.83C53.9827 86.3767 54.3233 87.1243 54.362 87.9173C54.3755 88.3246 54.3075 88.7303 54.1621 89.1105C54.0167 89.4907 53.7968 89.8376 53.5155 90.1303C53.2343 90.4231 52.8975 90.6559 52.5251 90.8148C52.1527 90.9737 51.7523 91.0555 51.3479 91.0553" fill="#1B4066"/>
<path d="M65.3083 29.3142C65.3083 29.3142 65.6448 22.8309 62.5503 19.9713C59.4558 17.1118 58.6269 17.0257 55.6178 17.2788C42.6722 9.87431 32.6502 21.9047 32.6502 21.9047L35.4081 22.4968C35.4081 22.4968 29.1236 27.7908 30.6257 34.4412C32.0474 32.8418 32.399 32.8469 32.399 32.8469L35.9155 42.2708L35.5839 35.7925C35.5839 35.7925 40.7532 34.8663 40.9189 30.0683C41.7478 30.1645 49.459 31.5867 53.95 24.501C55.2863 23.1548 55.2863 22.8157 57.4665 24.7541C59.6467 26.6925 60.3902 29.6584 60.9127 31.2121C61.4351 32.7659 61.9174 41.1067 61.9174 41.1067L63.8313 35.585H64.3337L65.3083 29.3142Z" fill="#004169"/>
</g>
<defs>
<clipPath id="clip0">
<rect width="96" height="96" fill="white" transform="translate(0.630127)"/>
</clipPath>
</defs>
</svg>
