<svg width="96" height="96" viewBox="0 0 97 96" fill="none" xmlns="http://www.w3.org/2000/svg">
<g clip-path="url(#clip0)">
<path d="M48.8053 95.0443C74.7906 95.0443 95.8558 73.9823 95.8558 48.0009C95.8558 22.0195 74.7906 0.957451 48.8053 0.957451C22.82 0.957451 1.7547 22.0195 1.7547 48.0009C1.7547 73.9823 22.82 95.0443 48.8053 95.0443Z" fill="white" stroke="#004169" stroke-width="2"/>
<path d="M43.6602 69.6162L48.965 64.9852L53.8128 69.0696L49.7989 73.5285L53.9785 80.5534L47.7142 93.9755L42.0778 81.6466L46.1267 73.4424L43.6602 69.6162Z" fill="#C7FFE5"/>
<path d="M62.9005 53.1927L81.7137 64.1603L77.4588 66.0633C77.4588 66.0633 80.3674 66.3416 81.9046 68.7204C83.4418 71.0991 85.5115 77.375 85.5115 77.375C85.5115 77.375 79.6189 83.5141 74.3391 86.9912C69.0594 90.4682 57.9373 94.512 57.9373 94.512L63.2522 58.4108L60.3938 55.531L62.9005 53.1927Z" fill="#62FCB7"/>
<path d="M77.4586 66.0633C79.5384 66.949 81.2313 67.8701 81.9045 68.7204C83.2257 70.3906 83.944 73.326 84.3258 75.6187" stroke="#004169" stroke-miterlimit="10" stroke-linecap="round"/>
<path d="M35.2608 53.1927L16.4477 64.1603L20.7026 66.0633C20.7026 66.0633 17.794 66.3416 16.2568 68.7204C14.7196 71.0991 12.6448 77.375 12.6448 77.375C12.6448 77.375 18.5425 83.5141 23.8222 86.9912C29.102 90.4682 40.2241 94.512 40.2241 94.512L34.9092 58.4159L37.7676 55.5361L35.2608 53.1927Z" fill="#62FCB7"/>
<path d="M20.7026 66.0633C18.6228 66.949 16.9299 67.8701 16.2567 68.7204C14.9355 70.3906 14.2172 73.326 13.8354 75.6187" stroke="#004169" stroke-miterlimit="10" stroke-linecap="round"/>
<path d="M49.1057 61.2956C46.3026 61.2956 43.193 59.8431 42.0476 59.089C40.9023 58.3349 35.7833 54.3163 35.1453 51.7959C34.7199 49.8407 34.4778 47.8497 34.4219 45.849C34.4219 45.849 31.4982 43.4348 31.1616 40.1552C30.825 36.8756 30.6894 34.4867 31.6941 33.5757C32.6988 32.6647 34.2059 33.5757 34.2059 33.5757C34.2059 33.5757 32.1362 22.2691 39.2646 17.2332C42.1698 15.2259 45.5847 14.0984 49.1057 13.984C52.6268 14.0978 56.0419 15.2253 58.9469 17.2332C66.0753 22.2944 64.0156 33.5605 64.0156 33.5605C64.0156 33.5605 65.5227 32.6343 66.5274 33.5605C67.5321 34.4867 67.3914 36.8705 67.0549 40.14C66.7183 43.4095 63.7996 45.8338 63.7996 45.8338C63.7485 47.8388 63.513 49.8347 63.0963 51.7959C62.4533 54.3264 57.3293 58.3298 56.1889 59.089C55.0486 59.8482 51.9089 61.2956 49.1057 61.2956Z" stroke="#004169" stroke-linecap="round" stroke-linejoin="round"/>
<path opacity="0.37" d="M48.9651 64.9852C48.9651 64.9852 43.193 59.8431 42.0476 59.089C40.9023 58.3349 35.7833 54.3163 35.1453 51.7959C34.7199 49.8407 34.4778 47.8497 34.4219 45.849C34.4219 45.849 31.4982 43.4348 31.1616 40.1552C30.825 36.8756 30.6894 34.4867 31.6941 33.5757C32.6988 32.6647 34.2059 33.5757 34.2059 33.5757C34.2059 33.5757 32.1362 22.2691 39.2646 17.2332C42.1698 15.2259 45.5847 14.0984 49.1057 13.984C52.6268 14.0978 56.0419 15.2253 58.9469 17.2332C66.0753 22.2944 64.0156 33.5605 64.0156 33.5605C64.0156 33.5605 65.5227 32.6343 66.5274 33.5605C67.5321 34.4867 67.3914 36.8705 67.0549 40.14C66.7183 43.4095 63.7996 45.8338 63.7996 45.8338C63.7485 47.8388 63.513 49.8347 63.0963 51.7959C62.4533 54.3264 57.3293 58.3298 56.1889 59.089C55.0486 59.8482 48.9651 64.9852 48.9651 64.9852Z" fill="#004169" stroke="#004169" stroke-linecap="round" stroke-linejoin="round"/>
<path d="M48.8053 95.0443C74.7906 95.0443 95.8558 73.9823 95.8558 48.0009C95.8558 22.0195 74.7906 0.957451 48.8053 0.957451C22.82 0.957451 1.7547 22.0195 1.7547 48.0009C1.7547 73.9823 22.82 95.0443 48.8053 95.0443Z" stroke="#004169" stroke-width="2"/>
<path d="M44.8458 51.0114C45.9158 51.0114 47.1717 51.2644 48.9952 51.2644C50.8188 51.2644 52.0947 51.0114 53.1396 51.0114" stroke="#004169" stroke-linecap="round" stroke-linejoin="round"/>
<path d="M42.0627 42.1038C44.8843 42.1038 47.1716 40.4134 47.1716 38.3281C47.1716 36.2429 44.8843 34.5525 42.0627 34.5525C39.2411 34.5525 36.9537 36.2429 36.9537 38.3281C36.9537 40.4134 39.2411 42.1038 42.0627 42.1038Z" fill="#004169"/>
<path d="M56.4502 42.1038C59.2718 42.1038 61.5591 40.4134 61.5591 38.3281C61.5591 36.2429 59.2718 34.5525 56.4502 34.5525C53.6286 34.5525 51.3412 36.2429 51.3412 38.3281C51.3412 40.4134 53.6286 42.1038 56.4502 42.1038Z" fill="#004169"/>
<path d="M46.167 37.1084C47.1211 36.7768 48.1141 36.5727 49.1208 36.5011C50.1099 36.5703 51.085 36.7746 52.0194 37.1084" stroke="#004169" stroke-width="1.09827" stroke-miterlimit="10" stroke-linecap="round"/>
<path d="M45.4637 45.4795C46.5287 45.4795 47.2873 46.7448 49.1108 46.7448C50.9344 46.7448 51.708 45.4795 52.7529 45.4795" stroke="#004169" stroke-width="1.15394" stroke-linecap="round" stroke-linejoin="round"/>
<path d="M48.9952 53.2484C51.0143 53.0289 52.9182 52.1917 54.4508 50.8494C53.6571 50.5508 51.4367 49.1641 50.8138 49.1641C50.1909 49.1641 48.9952 50.1308 48.9952 50.1308C48.9952 50.1308 47.7996 49.1641 47.1717 49.1641C46.5438 49.1641 44.3334 50.5508 43.5397 50.8494C45.097 52.4032 47.9855 53.2484 48.9952 53.2484Z" stroke="#004169" stroke-linecap="round" stroke-linejoin="round"/>
<path d="M48.6788 65.0612L37.8128 74.9911L35.1403 57.8237L37.1447 55.8043L48.6788 65.0612Z" stroke="#004169" stroke-linecap="round" stroke-linejoin="round"/>
<path d="M49.3669 65.0612L60.2279 74.9911L62.9004 57.8237L60.896 55.8043L49.3669 65.0612Z" stroke="#004169" stroke-linecap="round" stroke-linejoin="round"/>
<path d="M57.6107 72.7288L47.7544 94.0565L38.7372 74.3231" stroke="#004169" stroke-width="1.01223" stroke-miterlimit="10"/>
<path d="M43.6602 69.6162L48.965 64.9852L53.8128 69.0696L49.7989 73.5285L53.9785 80.5534L47.7142 93.9755L42.0778 81.6466L46.1267 73.4424L43.6602 69.6162Z" stroke="#004169" stroke-linecap="round" stroke-linejoin="round"/>
<path d="M62.9003 53.1927L81.7135 64.1603L67.2959 70.6082L86.4407 76.2362C86.4407 76.2362 81.2413 83.0333 73.9471 87.6795C66.6529 92.3256 57.4347 94.0565 57.4347 94.0565L62.9003 57.8237L60.8909 55.7992L62.9003 53.1927Z" stroke="#004169" stroke-linecap="round" stroke-linejoin="round"/>
<path d="M35.2609 53.1927L16.4477 64.1603L30.8653 70.6082L11.7205 76.2362C11.7205 76.2362 16.9199 83.0333 24.2141 87.6795C31.5083 92.3256 40.7265 94.0565 40.7265 94.0565L35.2609 57.8237L37.2703 55.7992L35.2609 53.1927Z" stroke="#004169" stroke-linecap="round" stroke-linejoin="round"/>
</g>
<defs>
<clipPath id="clip0">
<rect width="96" height="96" fill="white" transform="translate(0.804382)"/>
</clipPath>
</defs>
</svg>
