<svg width="96" height="96" viewBox="0 0 97 96" fill="none" xmlns="http://www.w3.org/2000/svg">
<g clip-path="url(#clip0)">
<path d="M48.9794 95.0443C74.9647 95.0443 96.03 73.9823 96.03 48.0009C96.03 22.0195 74.9647 0.957451 48.9794 0.957451C22.9941 0.957451 1.92889 22.0195 1.92889 48.0009C1.92889 73.9823 22.9941 95.0443 48.9794 95.0443Z" fill="white" stroke="#004169" stroke-width="2"/>
<path d="M14.984 78.9085C14.5118 76.3779 15.0745 70.2033 17.7972 67.7081C22.8911 63.0468 27.985 63.7554 36.304 60.7895C38.0673 60.162 37.6955 56.0371 39.0267 56.4521C41.9505 57.3682 42.7793 58.9827 47.2151 62.1105C48.0842 62.7229 47.0544 66.8478 47.8833 66.782C49.4858 66.6504 48.3856 66.2758 51.4801 66.2758C52.3743 66.2758 51.2139 62.8899 52.1533 62.1105C55.2629 59.5192 56.5238 59.1599 59.2415 56.8418C60.2462 55.9966 63.19 60.3847 64.8528 60.9667C70.1979 62.9001 77.3413 63.0165 81.33 68.7204C83.6559 72.0456 83.6559 74.232 84.103 77.2889C84.9822 83.3623 63.7627 93.8996 49.7018 94.0262C34.3096 94.1628 16.3505 86.2117 14.984 78.9085Z" fill="#62FCB7"/>
<path d="M48.9794 95.0443C74.9647 95.0443 96.03 73.9823 96.03 48.0009C96.03 22.0195 74.9647 0.957451 48.9794 0.957451C22.9941 0.957451 1.92889 22.0195 1.92889 48.0009C1.92889 73.9823 22.9941 95.0443 48.9794 95.0443Z" stroke="#004169" stroke-width="2"/>
<path d="M35.641 36.4656C33.8727 35.6811 32.7775 36.1873 32.5163 37.984C32.1245 40.4892 32.6268 44.275 35.8017 44.9329" stroke="#004169" stroke-miterlimit="10" stroke-linecap="round"/>
<path d="M62.9541 36.4656C64.7274 35.6811 65.8175 36.1873 66.0838 37.984C66.4505 40.5145 65.9682 44.28 62.7883 44.938" stroke="#004169" stroke-miterlimit="10" stroke-linecap="round"/>
<path d="M36.1433 37.4121V46.8967C36.1433 48.663 37.9819 52.5399 40.7499 55.6626C42.9954 58.1932 45.8589 60.2531 48.8378 60.2531C55.9913 60.2531 62.4265 50.9102 62.4265 46.8967V36.9059" stroke="#004169" stroke-miterlimit="10" stroke-linecap="round"/>
<path d="M63.1801 61.8018C63.1801 61.8018 78.4517 65.6938 80.8379 68.7204C83.2241 71.7469 83.6561 79.9207 83.6561 79.9207" stroke="#004169" stroke-miterlimit="10" stroke-linecap="round"/>
<path d="M34.9579 61.8018C34.9579 61.8018 19.6863 65.6938 17.2951 68.7204C14.9039 71.7469 14.4819 79.9207 14.4819 79.9207" stroke="#004169" stroke-miterlimit="10" stroke-linecap="round"/>
<path d="M59.8394 57.4644C60.5879 57.8035 62.3009 60.7895 62.3009 61.4627C62.3009 63.0671 52.8215 69.1759 51.9826 68.6698C51.1436 68.1636 50.7317 64.469 51.651 63.1025C52.2187 62.313 59.0859 57.1303 59.8394 57.4644Z" stroke="#004169" stroke-width="1.01223" stroke-miterlimit="10"/>
<path d="M38.5245 57.4644C37.771 57.8035 36.058 60.7895 36.058 61.4627C36.058 63.0671 45.5424 69.1759 46.3764 68.6698C47.2103 68.1636 47.6272 64.469 46.7129 63.1025C46.1603 62.313 39.2781 57.1303 38.5245 57.4644Z" stroke="#004169" stroke-width="1.01223" stroke-miterlimit="10"/>
<path d="M46.09 44.8317C46.09 44.8317 47.8382 46.011 49.1342 46.011C50.4303 46.011 51.9926 44.8317 51.9926 44.8317" stroke="#004169" stroke-miterlimit="10" stroke-linecap="round"/>
<path d="M45.5927 49.9941C46.7276 50.2565 47.8818 50.4258 49.0438 50.5002C50.3343 50.4153 51.618 50.2462 52.8868 49.9941" stroke="#004169" stroke-miterlimit="10" stroke-linecap="round"/>
<path d="M47.8532 53.1927H50.6262" stroke="#004169" stroke-miterlimit="10" stroke-linecap="round"/>
<path d="M47.3811 67.3134C47.858 67.6759 48.4475 67.8554 49.0439 67.8195C49.7209 67.8197 50.3867 67.6455 50.978 67.3134" stroke="#004169" stroke-miterlimit="10" stroke-linecap="round"/>
<path d="M48.9785 71.2307V92.7457" stroke="#004169" stroke-miterlimit="10" stroke-linecap="round"/>
<path d="M53.3791 79.9207C54.1421 79.9207 54.7606 79.2976 54.7606 78.5289C54.7606 77.7602 54.1421 77.1371 53.3791 77.1371C52.6161 77.1371 51.9976 77.7602 51.9976 78.5289C51.9976 79.2976 52.6161 79.9207 53.3791 79.9207Z" fill="#004169"/>
<path d="M53.3791 85.4525C54.1421 85.4525 54.7606 84.8294 54.7606 84.0607C54.7606 83.2921 54.1421 82.6689 53.3791 82.6689C52.6161 82.6689 51.9976 83.2921 51.9976 84.0607C51.9976 84.8294 52.6161 85.4525 53.3791 85.4525Z" fill="#004169"/>
<path d="M39.4438 57.7984L40.76 55.6626" stroke="#004169" stroke-miterlimit="10" stroke-linecap="round"/>
<path d="M58.9905 57.7984L57.6743 55.6626" stroke="#004169" stroke-miterlimit="10" stroke-linecap="round"/>
<path d="M50.7117 38.6774C50.7117 37.7916 52.2187 35.9342 55.9864 35.5647C59.7541 35.1953 62.0147 36.1518 62.0147 36.911C62.0147 37.6702 61.3013 41.4104 56.7902 42.2556C52.279 43.1008 50.7117 39.558 50.7117 38.6774Z" fill="#004169"/>
<path d="M47.9387 38.6774C47.9387 37.7917 46.3915 35.9393 42.6338 35.5647C38.8762 35.1902 36.6056 36.1518 36.6056 36.911C36.6056 37.6702 37.3139 41.4104 41.8251 42.2556C46.3362 43.1008 47.9387 39.558 47.9387 38.6774Z" fill="#004169"/>
<path d="M51.1035 38.4648H47.7628" stroke="#004169" stroke-miterlimit="10" stroke-linecap="round"/>
<path d="M42.5182 15.1227C42.5182 15.1227 43.4375 11.418 49.4105 11.418C55.3835 11.418 60.7587 15.7503 60.7587 15.7503C60.7587 15.7503 65.2799 20.3053 65.8124 23.1598C66.3449 26.0143 65.31 34.8005 65.31 34.8005L62.2206 42.7161C62.2206 42.7161 61.5122 28.2817 61.3867 27.1885C61.2611 26.0953 59.7992 23.9443 57.1267 23.1396C54.4542 22.3349 51.2692 25.073 49.5663 25.073C47.8633 25.073 45.4721 22.674 42.5333 22.841C39.5945 23.008 38.3989 25.5791 37.3992 27.3454C36.3995 29.1118 36.3543 43.4652 36.3543 43.4652L32.9132 34.183C32.9132 34.183 32.4561 23.1143 32.9132 21.6415C33.3703 20.1687 33.5813 18.6554 35.9273 16.803C38.2733 14.9506 42.5182 15.1227 42.5182 15.1227Z" fill="#004169"/>
</g>
<defs>
<clipPath id="clip0">
<rect width="96" height="96" fill="white" transform="translate(0.978516)"/>
</clipPath>
</defs>
</svg>
