<svg width="96" height="96" viewBox="0 0 97 96" fill="none" xmlns="http://www.w3.org/2000/svg">
<g clip-path="url(#clip0)">
<path d="M48.1535 95.0443C74.1388 95.0443 95.2041 73.9823 95.2041 48.0009C95.2041 22.0195 74.1388 0.957451 48.1535 0.957451C22.1682 0.957451 1.10297 22.0195 1.10297 48.0009C1.10297 73.9823 22.1682 95.0443 48.1535 95.0443Z" fill="white" stroke="#004169" stroke-width="2"/>
<path d="M41.1298 41.2687C43.8487 41.2687 46.0529 40.0609 46.0529 38.5711C46.0529 37.0812 43.8487 35.8735 41.1298 35.8735C38.4109 35.8735 36.2067 37.0812 36.2067 38.5711C36.2067 40.0609 38.4109 41.2687 41.1298 41.2687Z" fill="#004169"/>
<path d="M55.4469 41.2687C58.1658 41.2687 60.37 40.0609 60.37 38.5711C60.37 37.0812 58.1658 35.8735 55.4469 35.8735C52.7279 35.8735 50.5238 37.0812 50.5238 38.5711C50.5238 40.0609 52.7279 41.2687 55.4469 41.2687Z" fill="#004169"/>
<path d="M45.5455 37.3918C45.5455 36.8452 47.0526 36.8857 48.2934 36.8857C49.5342 36.8857 51.0363 36.825 51.0363 37.3918" stroke="#004169" stroke-width="1.01223" stroke-miterlimit="10"/>
<path d="M49.2629 94.5778C66.8906 91.9561 81.1122 85.9486 81.4136 81.267C81.5593 79.0856 80.4793 76.0591 80.4793 76.0591C80.4793 76.0591 80.213 72.9464 77.3596 69.8844C71.7835 63.9022 58.4259 64.2767 57.6623 64.2463L49.2629 94.5778Z" fill="#62FCB7"/>
<path d="M47.5449 94.5778C29.9223 91.9561 17.4438 86.48 17.1323 81.7731C17.0876 80.22 17.2755 78.6691 17.6899 77.1725C18.4953 74.7962 19.7972 72.6216 21.5078 70.7955C27.089 64.8132 38.3769 64.2767 39.1505 64.2463L47.5449 94.5778Z" fill="#62FCB7"/>
<path d="M48.1535 95.0443C74.1388 95.0443 95.2041 73.9823 95.2041 48.0009C95.2041 22.0195 74.1388 0.957451 48.1535 0.957451C22.1682 0.957451 1.10297 22.0195 1.10297 48.0009C1.10297 73.9823 22.1682 95.0443 48.1535 95.0443Z" stroke="#004169" stroke-width="2"/>
<path d="M56.2054 64.1603L61.3747 71.4281L57.2554 73.822L60.812 76.1603L49.3081 95.0435L51.8651 88.2969L57.0092 67.4652L56.2054 64.1603Z" stroke="#004169" stroke-linecap="round" stroke-linejoin="round"/>
<path d="M56.5068 65.0359C51.9856 67.6626 44.6864 67.5664 40.9991 65.0359" stroke="#004169" stroke-linecap="round" stroke-linejoin="round"/>
<path d="M40.4968 64.1603L35.3276 71.4281L39.4469 73.822L35.8902 76.1603L47.3891 95.0435L44.8321 88.2969L39.693 67.4652L40.4968 64.1603Z" stroke="#004169" stroke-linecap="round" stroke-linejoin="round"/>
<path d="M37.6032 34.9473C37.6032 34.9473 38.1709 32.9228 40.8585 32.9228C41.5353 32.917 42.1999 33.1039 42.7759 33.4621C43.3518 33.8203 43.8156 34.3351 44.1137 34.9473" stroke="#004169" stroke-miterlimit="10" stroke-linecap="round"/>
<path d="M52.4428 34.9473C52.4428 34.9473 53.0105 32.9228 55.693 32.9228C56.3701 32.9158 57.0353 33.1022 57.6114 33.4605C58.1876 33.8189 58.6511 34.3344 58.9483 34.9473" stroke="#004169" stroke-miterlimit="10" stroke-linecap="round"/>
<path d="M44.1389 46.9878C44.1389 46.9878 44.9125 49.7157 48.5696 49.7157C49.4881 49.7269 50.391 49.4769 51.1748 48.9943C51.9585 48.5118 52.5913 47.8163 53.0004 46.9878" stroke="#004169" stroke-miterlimit="10" stroke-linecap="round"/>
<path d="M46.7261 42.8478C46.7261 42.8478 47.0476 43.9814 48.5697 43.9814C48.9523 43.9889 49.329 43.8862 49.6556 43.6854C49.9822 43.4846 50.2451 43.194 50.4134 42.8478" stroke="#004169" stroke-miterlimit="10" stroke-linecap="round"/>
<path d="M34.8152 35.9595C33.0469 35.175 31.9518 35.6811 31.6906 37.4779C31.2987 39.9831 31.8011 42.7566 34.976 43.4146" stroke="#004169" stroke-miterlimit="10" stroke-linecap="round"/>
<path d="M62.1282 35.9595C63.9015 35.175 64.9916 35.6811 65.2579 37.4779C65.6246 40.0084 65.1423 42.7617 61.9624 43.4197" stroke="#004169" stroke-miterlimit="10" stroke-linecap="round"/>
<path d="M35.0211 34.2995V42.2708C35.4682 50.2725 40.0145 56.442 47.7006 56.6343C56.0195 56.8722 61.8167 50.9709 61.8067 42.2708V33.7933" stroke="#004169" stroke-miterlimit="10" stroke-linecap="round"/>
<path d="M55.9141 64.8283C56.3411 63.477 56.3411 62.5559 56.3411 59.8381V54.0532" stroke="#004169" stroke-miterlimit="10" stroke-linecap="round"/>
<path d="M40.2507 54.0532V59.8381C40.3512 62.3383 40.3462 63.2037 40.7531 64.5753" stroke="#004169" stroke-miterlimit="10" stroke-linecap="round"/>
<path d="M56.326 64.3324C56.326 64.3324 74.6118 68.2244 76.9979 71.251C79.3841 74.2775 79.8162 82.4513 79.8162 82.4513" stroke="#004169" stroke-miterlimit="10" stroke-linecap="round"/>
<path d="M40.1603 64.3324C40.1603 64.3324 21.8746 68.2244 19.4834 71.251C17.0921 74.2775 16.6702 82.4513 16.6702 82.4513" stroke="#004169" stroke-miterlimit="10" stroke-linecap="round"/>
<path d="M33.3986 35.3269C31.5499 31.8903 31.3892 24.4758 35.0112 19.0907C36.0159 17.6128 36.1063 17.0662 39.0702 15.5833C39.8941 15.1733 41.1952 14.3787 41.9085 14.065C44.1641 13.0021 46.3041 12.992 48.64 12.9616C53.1612 12.906 56.4366 15.1936 57.5468 15.9983C60.4104 18.0597 62.5174 21.017 63.5399 24.41C65.1273 29.714 61.9675 35.7571 61.4401 34.922C60.355 33.267 62.6055 22.3096 56.3261 21.4138C54.7889 21.1961 54.4423 22.8056 50.6997 21.5352C49.0721 20.9785 45.8168 27.0316 44.5911 27.1733C43.6215 27.2847 45.219 23.9291 44.4755 23.8735C43.1845 23.7773 41.5418 27.9224 40.7179 27.8009C40.1352 27.7098 40.2156 26.0346 39.9393 25.6145C39.663 25.1944 39.2611 25.2855 39.02 26.3433C38.7185 27.6592 36.1214 28.7828 36.0058 30.038C35.4131 35.6052 35.5688 36.5415 35.5688 36.5415C35.2021 36.6377 33.7201 35.9342 33.3986 35.3269Z" fill="#004169"/>
</g>
<defs>
<clipPath id="clip0">
<rect width="96" height="96" fill="white" transform="translate(0.15271)"/>
</clipPath>
</defs>
</svg>
