<svg width="96" height="96" viewBox="0 0 97 96" fill="none" xmlns="http://www.w3.org/2000/svg">
<g clip-path="url(#clip0)">
<path d="M48.3276 95.0443C74.3129 95.0443 95.3782 73.9823 95.3782 48.0009C95.3782 22.0195 74.3129 0.957451 48.3276 0.957451C22.3423 0.957451 1.2771 22.0195 1.2771 48.0009C1.2771 73.9823 22.3423 95.0443 48.3276 95.0443Z" fill="white" stroke="#004169" stroke-width="2"/>
<path d="M16.774 83.666C16.774 83.666 16.6535 76.0742 22.0487 71.3471C27.444 66.62 41.5853 65.9165 41.5853 65.9165L48.2968 75.0924L58.2434 62.895C58.2434 62.895 72.9875 65.795 75.9866 70.7448C78.9856 75.6946 79.8195 82.6993 79.8195 82.6993C79.8195 82.6993 63.0409 94.922 48.553 94.8005C34.0651 94.679 16.774 83.666 16.774 83.666Z" fill="#62FCB7"/>
<path d="M75.65 35.5344C75.65 35.5344 75.1477 33.9654 73.6105 29.7393C72.0733 25.5133 68.3357 14.8849 61.5037 14.1712C55.8723 11.3927 45.6846 13.2046 45.6846 13.2046C45.6846 13.2046 53.5766 27.9275 64.8594 30.5846C67.0146 31.0907 61.4585 38.0042 61.7147 45.601C61.8453 49.5183 57.0076 54.8224 58.4896 58.3197C60.499 63.0924 69.1395 65.542 70.6114 66.0835C71.1138 66.2657 69.3404 64.5145 71.6513 61.7714C73.1985 59.9342 79.2218 57.6567 79.1514 55.1919C79.056 51.8313 70.6667 48.1569 71.0434 44.9026C71.6613 39.6845 75.65 35.5344 75.65 35.5344Z" fill="#C7FFE5"/>
<path d="M48.3276 95.0443C74.3129 95.0443 95.3782 73.9823 95.3782 48.0009C95.3782 22.0195 74.3129 0.957451 48.3276 0.957451C22.3423 0.957451 1.2771 22.0195 1.2771 48.0009C1.2771 73.9823 22.3423 95.0443 48.3276 95.0443Z" stroke="#004169" stroke-width="2"/>
<path d="M52.5316 38.566C52.567 38.2687 52.7157 37.9969 52.9463 37.8081C53.1769 37.6192 53.4713 37.528 53.7674 37.5538C54.0388 37.5497 54.3009 37.6537 54.4966 37.8433C54.6922 38.0329 54.8057 38.2926 54.8123 38.566C54.8123 38.6116 54.8123 38.6571 54.8123 38.7077C54.8018 38.9852 54.683 39.2472 54.4816 39.4368C54.2803 39.6264 54.0127 39.7282 53.7373 39.72H53.6217C53.3289 39.7021 53.0537 39.5731 52.8514 39.359C52.6491 39.1449 52.5349 38.8616 52.5316 38.566V38.566Z" fill="#07446C"/>
<path d="M44.4085 38.6116C44.298 39.2999 44.0217 39.6946 43.4038 39.6845C43.1455 39.696 42.8927 39.6066 42.6981 39.4351C42.5034 39.2635 42.382 39.0229 42.3589 38.7634C42.3489 38.6861 42.3489 38.6079 42.3589 38.5306C42.3522 38.4098 42.3692 38.2889 42.409 38.1748C42.4489 38.0608 42.5107 37.9558 42.5911 37.8659C42.6714 37.776 42.7686 37.7031 42.8771 37.6512C42.9855 37.5994 43.1031 37.5697 43.223 37.5639C43.2648 37.5614 43.3068 37.5614 43.3486 37.5639C43.611 37.5499 43.8685 37.6402 44.0657 37.8152C44.2629 37.9902 44.3842 38.2361 44.4035 38.5002L44.4085 38.6116Z" fill="#07446C"/>
<path d="M43.3988 33.8794C44.0197 33.8988 44.6256 34.0766 45.1598 34.3961C45.694 34.7156 46.139 35.1665 46.4531 35.7065C46.6289 35.9798 46.7143 36.2682 46.3928 36.4758C46.0713 36.6833 45.8905 36.4758 45.6845 36.2024C45.4345 35.7719 45.0776 35.4142 44.6488 35.1647C44.2201 34.9152 43.7342 34.7823 43.2391 34.7793C42.7439 34.7762 42.2565 34.903 41.8248 35.1472C41.393 35.3914 41.0317 35.7446 40.7765 36.1721C40.5906 36.4606 40.3947 36.6782 40.0431 36.4656C39.6914 36.2531 39.8522 35.9595 40.0431 35.6609C40.4017 35.0969 40.8994 34.6362 41.4876 34.324C42.0757 34.0117 42.7343 33.8585 43.3988 33.8794V33.8794Z" fill="#07446C"/>
<path d="M53.5764 33.8794C54.1974 33.8983 54.8035 34.0759 55.3378 34.3955C55.872 34.7151 56.3169 35.1662 56.6307 35.7065C56.8065 35.9798 56.8919 36.2682 56.5704 36.4758C56.2489 36.6833 56.0681 36.4758 55.8621 36.2025C55.6121 35.7719 55.2552 35.4142 54.8264 35.1647C54.3976 34.9152 53.9118 34.7823 53.4167 34.7793C52.9215 34.7762 52.4341 34.903 52.0024 35.1472C51.5706 35.3914 51.2093 35.7446 50.9541 36.1721C50.7682 36.4606 50.5723 36.6782 50.2257 36.4656C49.879 36.2531 50.0298 35.9595 50.2257 35.6609C50.5838 35.0976 51.0807 34.6375 51.668 34.3252C52.2552 34.013 52.9127 33.8594 53.5764 33.8794V33.8794Z" fill="#07446C"/>
<path d="M40.0432 36.4656C40.0432 36.4656 40.6008 34.4412 43.2181 34.4412C43.8832 34.4416 44.5345 34.632 45.0964 34.9904C45.6584 35.3487 46.108 35.8602 46.393 36.4656" stroke="#004169" stroke-miterlimit="10" stroke-linecap="round"/>
<path d="M50.4971 36.4656C50.4971 36.4656 51.0497 34.4412 53.672 34.4412C54.337 34.4416 54.9883 34.632 55.5503 34.9904C56.1122 35.3487 56.5618 35.8602 56.8468 36.4656" stroke="#004169" stroke-miterlimit="10" stroke-linecap="round"/>
<path d="M44.4084 45.9755C44.4084 45.9755 45.162 48.7035 48.7287 48.7035C49.6354 48.7117 50.5257 48.4594 51.2952 47.9763C52.0648 47.4932 52.6818 46.7992 53.0741 45.9755" stroke="#004169" stroke-miterlimit="10" stroke-linecap="round"/>
<path d="M43.3787 37.5437H43.3737C42.8022 37.5437 42.3389 38.0104 42.3389 38.5863V38.5913C42.3389 39.1671 42.8022 39.6339 43.3737 39.6339H43.3787C43.9503 39.6339 44.4136 39.1671 44.4136 38.5913V38.5863C44.4136 38.0104 43.9503 37.5437 43.3787 37.5437Z" fill="#004169"/>
<path d="M53.677 37.5437H53.6719C53.1004 37.5437 52.6371 38.0104 52.6371 38.5863V38.5913C52.6371 39.1671 53.1004 39.6339 53.6719 39.6339H53.677C54.2485 39.6339 54.7118 39.1671 54.7118 38.5913V38.5863C54.7118 38.0104 54.2485 37.5437 53.677 37.5437Z" fill="#004169"/>
<path d="M46.0763 21.2569C47.2166 26.728 59.3585 35.0434 65.0954 33.3733" stroke="#004169" stroke-miterlimit="10" stroke-linecap="round"/>
<path d="M33.0452 32.852C41.7007 30.8275 47.4376 27.2442 47.3573 24.248" stroke="#004169" stroke-miterlimit="10" stroke-linecap="round"/>
<path d="M24.3646 69.5453C26.1982 68.1232 27.2381 65.9266 26.4192 63.7098C25.1282 60.1974 20.6773 59.9443 20.5166 57.3125C20.4362 55.9511 21.7825 54.458 24.4701 51.477C26.1681 49.5993 27.0874 48.9819 27.0874 47.7773C27.0874 46.5728 26.0827 46.0515 24.7514 44.2345C24.1235 43.3994 21.9081 40.4386 21.9634 37.3918C21.9985 35.6356 23.2092 34.1476 25.4196 31.1666C26.585 29.5875 26.6704 29.7596 27.3687 28.6968C29.2324 25.8524 28.7803 24.3897 29.9257 22.0211C31.8598 18.038 35.9539 16.3374 36.7225 16.0186C38.2296 15.3859 39.9075 15.1683 43.2532 14.728C44.3232 14.5863 45.9659 14.399 48.2767 14.2775C54.6365 13.9435 57.8214 13.7714 60.921 15.2898C62.3313 15.9824 63.6166 16.9079 64.7238 18.0278C66.2766 19.6837 67.4737 21.6444 68.2403 23.7874C69.7473 27.391 68.8783 27.6997 70.094 29.8305C71.9778 33.1354 74.1882 32.6596 75.1175 35.3117C76.2127 38.4395 73.7511 41.1877 73.3693 41.8254C71.4353 45.0645 69.4359 45.9452 69.4711 47.6913C69.5062 49.6196 72.4349 49.7916 74.8161 53.5217C75.6349 54.8123 76.4538 55.8043 75.8711 57.8439C75.2632 59.9949 72.6057 60.4251 71.1941 62.6672C70.1894 64.2817 70.5009 66.372 71.0284 68.0523" stroke="#004169" stroke-miterlimit="10" stroke-linecap="round"/>
<path d="M35.3059 35.9595C33.5828 35.175 32.5128 35.6811 32.2566 37.4779C31.8949 40.0084 32.3671 42.7617 35.4717 43.4197" stroke="#004169" stroke-miterlimit="10" stroke-linecap="round"/>
<path d="M61.9557 35.9595C63.6838 35.175 64.7488 35.6811 65.005 37.4779C65.3667 40.0084 64.8995 42.7617 61.7949 43.4197" stroke="#004169" stroke-miterlimit="10" stroke-linecap="round"/>
<path d="M35.5168 35.3117V42.2708C35.9539 50.2725 40.3847 56.442 47.8848 56.6343C55.9978 56.8722 61.6493 50.9709 61.6393 42.2708V35.3117" stroke="#004169" stroke-miterlimit="10" stroke-linecap="round"/>
<path d="M40.6158 54.5593V60.3442C40.8821 67.0047 43.841 72.1215 48.3421 72.2986C53.2099 72.496 56.3044 67.5867 56.2943 60.3442V54.5593" stroke="#004169" stroke-miterlimit="10" stroke-linecap="round"/>
<path d="M48.3419 72.2986V88.7676" stroke="#004169" stroke-miterlimit="10" stroke-linecap="round"/>
<path d="M56.2942 64.3324C56.2942 64.3324 73.1532 68.2244 75.4841 71.251C77.8151 74.2775 79.1965 82.4513 79.1965 82.4513" stroke="#004169" stroke-miterlimit="10" stroke-linecap="round"/>
<path d="M41.0176 64.3324C41.0176 64.3324 24.1636 68.2244 21.8327 71.251C19.5018 74.2775 18.1052 82.4513 18.1052 82.4513" stroke="#004169" stroke-miterlimit="10" stroke-linecap="round"/>
<path d="M46.9304 42.8478C47.0646 43.2097 47.3136 43.517 47.6387 43.722C47.9639 43.9269 48.347 44.0181 48.7289 43.9814C49.1046 43.9813 49.4728 43.8749 49.7916 43.6745C50.1103 43.4741 50.367 43.1877 50.5323 42.8478" stroke="#004169" stroke-miterlimit="10" stroke-linecap="round"/>
<path d="M51.3358 77.4762C52.0988 77.4762 52.7173 76.853 52.7173 76.0844C52.7173 75.3157 52.0988 74.6925 51.3358 74.6925C50.5729 74.6925 49.9543 75.3157 49.9543 76.0844C49.9543 76.853 50.5729 77.4762 51.3358 77.4762Z" fill="#004169"/>
<path d="M51.3358 83.003C52.0988 83.003 52.7173 82.3798 52.7173 81.6111C52.7173 80.8425 52.0988 80.2193 51.3358 80.2193C50.5729 80.2193 49.9543 80.8425 49.9543 81.6111C49.9543 82.3798 50.5729 83.003 51.3358 83.003Z" fill="#004169"/>
<path d="M51.3358 87.8465C52.0988 87.8465 52.7173 87.2233 52.7173 86.4547C52.7173 85.686 52.0988 85.0629 51.3358 85.0629C50.5729 85.0629 49.9543 85.686 49.9543 86.4547C49.9543 87.2233 50.5729 87.8465 51.3358 87.8465Z" fill="#004169"/>
</g>
<defs>
<clipPath id="clip0">
<rect width="96" height="96" fill="white" transform="translate(0.326904)"/>
</clipPath>
</defs>
</svg>
