<svg width="96" height="96" viewBox="0 0 97 96" fill="none" xmlns="http://www.w3.org/2000/svg">
<g clip-path="url(#clip0)">
<path d="M48.5018 95.0443C74.4871 95.0443 95.5524 73.9823 95.5524 48.0009C95.5524 22.0195 74.4871 0.957451 48.5018 0.957451C22.5165 0.957451 1.45129 22.0195 1.45129 48.0009C1.45129 73.9823 22.5165 95.0443 48.5018 95.0443Z" fill="white" stroke="#004169" stroke-width="2"/>
<path d="M42.6387 42.8275C45.291 42.8275 47.4412 41.1575 47.4412 39.0974C47.4412 37.0374 45.291 35.3674 42.6387 35.3674C39.9863 35.3674 37.8362 37.0374 37.8362 39.0974C37.8362 41.1575 39.9863 42.8275 42.6387 42.8275Z" fill="#C7FFE5"/>
<path d="M56.604 42.8275C59.2564 42.8275 61.4065 41.1575 61.4065 39.0974C61.4065 37.0374 59.2564 35.3674 56.604 35.3674C53.9517 35.3674 51.8015 37.0374 51.8015 39.0974C51.8015 41.1575 53.9517 42.8275 56.604 42.8275Z" fill="#C7FFE5"/>
<path d="M41.6339 42.3214C44.2863 42.3214 46.4364 40.6514 46.4364 38.5913C46.4364 36.5313 44.2863 34.8612 41.6339 34.8612C38.9816 34.8612 36.8314 36.5313 36.8314 38.5913C36.8314 40.6514 38.9816 42.3214 41.6339 42.3214Z" stroke="#004169" stroke-width="1.01223" stroke-miterlimit="10"/>
<path d="M55.5995 42.3214C58.2519 42.3214 60.402 40.6514 60.402 38.5913C60.402 36.5313 58.2519 34.8612 55.5995 34.8612C52.9472 34.8612 50.797 36.5313 50.797 38.5913C50.797 40.6514 52.9472 42.3214 55.5995 42.3214Z" stroke="#004169" stroke-width="1.01223" stroke-miterlimit="10"/>
<path d="M46.4465 36.9464C46.4465 36.1873 47.4161 35.5749 48.6167 35.5749C49.8173 35.5749 50.7919 36.1873 50.7919 36.9464" stroke="#004169" stroke-miterlimit="10" stroke-linecap="round"/>
<path d="M15.2454 82.8967C15.2454 82.8967 16.6319 72.41 18.9628 69.3783C21.2937 66.3467 39.6849 64.7828 39.6849 64.7828L47.8532 67.7081L46.9188 76.4842L44.9094 71.175L47.813 78.8984L50.3248 71.1194L49.5612 70.8005L50.1038 67.531L56.6344 64.4639C56.6344 64.4639 68.7763 64.7777 77.9895 69.1303C81.4306 70.755 82.2947 80.7103 82.2947 80.7103C82.2947 80.7103 65.6466 95.0434 47.8432 95.0434C30.0397 95.0434 15.2454 82.8967 15.2454 82.8967Z" fill="#62FCB7"/>
<path d="M48.5018 95.0443C74.4871 95.0443 95.5524 73.9823 95.5524 48.0009C95.5524 22.0195 74.4871 0.957451 48.5018 0.957451C22.5165 0.957451 1.45129 22.0195 1.45129 48.0009C1.45129 73.9823 22.5165 95.0443 48.5018 95.0443Z" stroke="#004169" stroke-width="2"/>
<path d="M48.9231 66.706L53.0324 72.0911L58.3975 65.4154L56.6594 64.4639C55.4763 65.2529 54.2133 65.9128 52.8917 66.4327C51.6275 66.9299 50.2426 67.0253 48.9231 66.706Z" stroke="#004169" stroke-width="1.15394" stroke-linecap="round" stroke-linejoin="round"/>
<path d="M48.5915 66.706L44.4772 72.0911L39.1171 65.4154L40.8552 64.4639C42.0383 65.2529 43.3013 65.9128 44.6229 66.4327C45.887 66.9299 47.2719 67.0253 48.5915 66.706Z" stroke="#004169" stroke-width="1.15394" stroke-linecap="round" stroke-linejoin="round"/>
<path d="M53.1077 94.3703H44.6279L47.7476 70.9118L46.8031 69.2315L48.7925 66.8174L50.5708 69.3429L49.5761 70.8005L53.1077 94.3703Z" stroke="#004169" stroke-width="1.15394" stroke-linecap="round" stroke-linejoin="round"/>
<path d="M39.8355 79.9359H29.919C29.6415 79.9359 29.4166 80.1625 29.4166 80.442V81.4087C29.4166 81.6882 29.6415 81.9148 29.919 81.9148H39.8355C40.1129 81.9148 40.3378 81.6882 40.3378 81.4087V80.442C40.3378 80.1625 40.1129 79.9359 39.8355 79.9359Z" fill="white" stroke="#004169" stroke-linecap="round" stroke-linejoin="round"/>
<path d="M32.6165 76.4842H32.6115C32.2092 76.4842 31.8831 76.8128 31.8831 77.2181V79.202C31.8831 79.6073 32.2092 79.9359 32.6115 79.9359H32.6165C33.0188 79.9359 33.3449 79.6073 33.3449 79.202V77.2181C33.3449 76.8128 33.0188 76.4842 32.6165 76.4842Z" fill="#004169"/>
<path d="M32.1344 78.5491C32.1344 78.3619 31.9849 78.21 31.8004 78.21C31.6159 78.21 31.4663 78.3619 31.4663 78.5491V82.5424C31.4663 82.7297 31.6159 82.8815 31.8004 82.8815C31.9849 82.8815 32.1344 82.7297 32.1344 82.5424V78.5491Z" fill="white" stroke="#004169" stroke-width="1.01223" stroke-miterlimit="10"/>
<path d="M34.1037 35.3269C32.3003 31.8903 31.5266 24.0405 35.9122 19.1312C37.0827 17.8153 37.5549 17.3041 40.4334 15.8212C43.7791 14.1156 45.9593 13.0021 48.9734 12.9616C53.374 12.906 56.5791 15.1936 57.6591 15.9983C60.465 18.0863 62.518 21.0396 63.5065 24.41C65.0488 29.7394 61.9693 35.7824 61.4519 34.9675C60.3919 33.3125 62.4566 21.272 56.3229 20.3712C54.8158 20.1535 54.6349 20.3458 50.9778 21.5808C46.6776 23.0283 42.6437 22.755 42.3172 21.5808C42.1514 21.0139 42.488 20.7963 42.2067 20.3762C41.9254 19.9561 40.5439 20.3205 40.4535 20.3458C37.796 21.186 36.6155 25.2501 36.2739 26.4648C34.7668 31.8903 36.9923 36.3796 36.1935 36.5618C35.862 36.6377 34.4202 35.9342 34.1037 35.3269Z" fill="#004169"/>
<path d="M38.1776 33.9351C38.1776 33.9351 38.7302 31.9106 41.3475 31.9106C42.0125 31.911 42.6638 32.1015 43.2258 32.4598C43.7877 32.8181 44.2373 33.3297 44.5224 33.9351" stroke="#004169" stroke-miterlimit="10" stroke-linecap="round"/>
<path d="M52.6656 33.9351C52.6656 33.9351 53.2233 31.9106 55.8405 31.9106C56.5056 31.911 57.1569 32.1015 57.7189 32.4598C58.2808 32.8181 58.7304 33.3297 59.0154 33.9351" stroke="#004169" stroke-miterlimit="10" stroke-linecap="round"/>
<path d="M44.5677 46.9878C44.5677 46.9878 45.3213 49.7157 48.888 49.7157C49.7913 49.72 50.6773 49.466 51.4429 48.9831C52.2086 48.5002 52.8225 47.8083 53.2133 46.9878" stroke="#004169" stroke-miterlimit="10" stroke-linecap="round"/>
<path d="M47.0895 42.8478C47.2237 43.2097 47.4727 43.517 47.7978 43.722C48.1229 43.9269 48.5061 44.0181 48.8879 43.9814C49.2637 43.9813 49.6318 43.8749 49.9506 43.6745C50.2694 43.4741 50.526 43.1877 50.6914 42.8478" stroke="#004169" stroke-miterlimit="10" stroke-linecap="round"/>
<path d="M42.0307 37.5437H42.0257C41.4542 37.5437 40.9908 38.0104 40.9908 38.5863V38.5913C40.9908 39.1671 41.4542 39.6339 42.0257 39.6339H42.0307C42.6023 39.6339 43.0656 39.1671 43.0656 38.5913V38.5863C43.0656 38.0104 42.6023 37.5437 42.0307 37.5437Z" fill="#004169"/>
<path d="M54.8408 37.5437H54.8358C54.2642 37.5437 53.8009 38.0104 53.8009 38.5863V38.5913C53.8009 39.1671 54.2642 39.6339 54.8358 39.6339H54.8408C55.4123 39.6339 55.8756 39.1671 55.8756 38.5913V38.5863C55.8756 38.0104 55.4123 37.5437 54.8408 37.5437Z" fill="#004169"/>
<path d="M35.465 35.9595C33.7419 35.175 32.6719 35.6811 32.4157 37.4779C32.054 40.0084 32.5262 42.7617 35.6307 43.4197" stroke="#004169" stroke-miterlimit="10" stroke-linecap="round"/>
<path d="M62.1149 35.9595C63.843 35.175 64.913 35.6811 65.1641 37.4779C65.5258 40.0084 65.0587 42.7617 61.9541 43.4197" stroke="#004169" stroke-miterlimit="10" stroke-linecap="round"/>
<path d="M35.6659 34.2995V42.2708C36.1029 50.2725 40.5337 56.442 48.0339 56.6343C56.1469 56.8722 61.7984 50.9709 61.7883 42.2708V33.7933" stroke="#004169" stroke-miterlimit="10" stroke-linecap="round"/>
<path d="M56.0364 64.8283C56.4584 63.477 56.4583 62.5559 56.4533 59.8381V54.0532" stroke="#004169" stroke-miterlimit="10" stroke-linecap="round"/>
<path d="M40.7749 54.0532V59.8381C40.8754 62.3383 40.8703 63.2037 41.2371 64.5753" stroke="#004169" stroke-miterlimit="10" stroke-linecap="round"/>
<path d="M56.4532 64.3324C56.4532 64.3324 75.3217 67.7183 77.6526 70.7448C79.9835 73.7714 81.3801 81.9452 81.3801 81.9452" stroke="#004169" stroke-miterlimit="10" stroke-linecap="round"/>
<path d="M40.6895 64.3324C40.6895 64.3324 21.8211 67.7183 19.4902 70.7448C17.1592 73.7714 15.7627 81.9452 15.7627 81.9452" stroke="#004169" stroke-miterlimit="10" stroke-linecap="round"/>
<path d="M53.1077 94.3703H44.6279L47.7476 70.9118L46.8031 69.2315L48.7925 66.8174L50.5708 69.3429L49.5761 70.8005L53.1077 94.3703Z" fill="#004169"/>
<path d="M62.4313 82.3956C62.7641 82.3956 63.0895 82.2962 63.3663 82.1099C63.643 81.9236 63.8587 81.6588 63.9861 81.349C64.1135 81.0392 64.1468 80.6983 64.0819 80.3694C64.0169 80.0405 63.8566 79.7384 63.6213 79.5012C63.3859 79.2641 63.0861 79.1026 62.7596 79.0372C62.4332 78.9718 62.0948 79.0054 61.7873 79.1337C61.4798 79.262 61.217 79.4793 61.032 79.7582C60.8471 80.037 60.7484 80.3648 60.7484 80.7001C60.7478 80.923 60.7908 81.1438 60.8752 81.3498C60.9595 81.5558 61.0834 81.7429 61.2398 81.9005C61.3963 82.0581 61.582 82.183 61.7865 82.2679C61.991 82.3529 62.2101 82.3963 62.4313 82.3956" fill="white"/>
<path d="M62.4867 79.0097C62.0449 79.005 61.6181 79.1715 61.2946 79.4748C60.9711 79.7781 60.7756 80.195 60.7486 80.6394C60.7412 80.8663 60.7791 81.0923 60.86 81.3042C60.941 81.516 61.0633 81.7093 61.2198 81.8726C61.3763 82.0359 61.5637 82.1659 61.771 82.2549C61.9782 82.3439 62.2011 82.39 62.4264 82.3906H67.45C67.6753 82.39 67.8982 82.3439 68.1055 82.2549C68.3128 82.1659 68.5002 82.0359 68.6567 81.8726C68.8132 81.7093 68.9355 81.516 69.0164 81.3042C69.0974 81.0923 69.1353 80.8663 69.1279 80.6394C69.102 80.1946 68.9069 79.7769 68.5832 79.4734C68.2594 79.1698 67.8319 79.0037 67.3897 79.0097H62.4867ZM67.445 83.7368H62.4214C62.0161 83.7371 61.6149 83.655 61.2419 83.4955C60.8688 83.336 60.5315 83.1023 60.2501 82.8084C59.9687 82.5145 59.749 82.1665 59.6042 81.7851C59.4594 81.4037 59.3924 80.9968 59.4073 80.5888C59.451 79.7984 59.7934 79.0548 60.3642 78.5107C60.935 77.9667 61.6909 77.6635 62.4767 77.6634H67.3746C68.1616 77.6624 68.9189 77.9658 69.4901 78.5112C70.0613 79.0565 70.4028 79.8021 70.444 80.5939C70.4582 81.0015 70.3907 81.4078 70.2456 81.7886C70.1005 82.1694 69.8807 82.5168 69.5994 82.8102C69.3181 83.1035 68.981 83.3367 68.6083 83.4959C68.2355 83.6552 67.8348 83.7371 67.4299 83.7368" fill="#1B4066"/>
</g>
<defs>
<clipPath id="clip0">
<rect width="96" height="96" fill="white" transform="translate(0.501099)"/>
</clipPath>
</defs>
</svg>
